<svg id="visual" viewBox="0 0 900 600" width="900" height="600" xmlns="http://www.w3.org/2000/svg" xmlns:xlink="http://www.w3.org/1999/xlink" version="1.1"><rect x="0" y="0" width="900" height="600" fill="#ffffff"></rect><path d="M0 336L21.5 339.7C43 343.3 86 350.7 128.8 354.7C171.7 358.7 214.3 359.3 257.2 362.2C300 365 343 370 385.8 379.5C428.7 389 471.3 403 514.2 411.5C557 420 600 423 642.8 422.2C685.7 421.3 728.3 416.7 771.2 398.8C814 381 857 350 878.5 334.5L900 319L900 601L878.5 601C857 601 814 601 771.2 601C728.3 601 685.7 601 642.8 601C600 601 557 601 514.2 601C471.3 601 428.7 601 385.8 601C343 601 300 601 257.2 601C214.3 601 171.7 601 128.8 601C86 601 43 601 21.5 601L0 601Z" fill="#ffffff"></path><path d="M0 447L21.5 441.3C43 435.7 86 424.3 128.8 419.5C171.7 414.7 214.3 416.3 257.2 407.8C300 399.3 343 380.7 385.8 381.8C428.7 383 471.3 404 514.2 418C557 432 600 439 642.8 437.2C685.7 435.3 728.3 424.7 771.2 408.3C814 392 857 370 878.5 359L900 348L900 601L878.5 601C857 601 814 601 771.2 601C728.3 601 685.7 601 642.8 601C600 601 557 601 514.2 601C471.3 601 428.7 601 385.8 601C343 601 300 601 257.2 601C214.3 601 171.7 601 128.8 601C86 601 43 601 21.5 601L0 601Z" fill="#ffb6b9"></path><path d="M0 435L21.5 437.3C43 439.7 86 444.3 128.8 448.2C171.7 452 214.3 455 257.2 451.7C300 448.3 343 438.7 385.8 429.2C428.7 419.7 471.3 410.3 514.2 403.2C557 396 600 391 642.8 403.2C685.7 415.3 728.3 444.7 771.2 453.8C814 463 857 452 878.5 446.5L900 441L900 601L878.5 601C857 601 814 601 771.2 601C728.3 601 685.7 601 642.8 601C600 601 557 601 514.2 601C471.3 601 428.7 601 385.8 601C343 601 300 601 257.2 601C214.3 601 171.7 601 128.8 601C86 601 43 601 21.5 601L0 601Z" fill="#fa6777"></path><path d="M0 502L21.5 488C43 474 86 446 128.8 440C171.7 434 214.3 450 257.2 454.8C300 459.7 343 453.3 385.8 450C428.7 446.7 471.3 446.3 514.2 452.3C557 458.3 600 470.7 642.8 474.8C685.7 479 728.3 475 771.2 469.7C814 464.3 857 457.7 878.5 454.3L900 451L900 601L878.5 601C857 601 814 601 771.2 601C728.3 601 685.7 601 642.8 601C600 601 557 601 514.2 601C471.3 601 428.7 601 385.8 601C343 601 300 601 257.2 601C214.3 601 171.7 601 128.8 601C86 601 43 601 21.5 601L0 601Z" fill="#f43f5e"></path><path d="M0 471L21.5 470.3C43 469.7 86 468.3 128.8 477C171.7 485.7 214.3 504.3 257.2 513.3C300 522.3 343 521.7 385.8 511.2C428.7 500.7 471.3 480.3 514.2 476.3C557 472.3 600 484.7 642.8 487C685.7 489.3 728.3 481.7 771.2 475.3C814 469 857 464 878.5 461.5L900 459L900 601L878.5 601C857 601 814 601 771.2 601C728.3 601 685.7 601 642.8 601C600 601 557 601 514.2 601C471.3 601 428.7 601 385.8 601C343 601 300 601 257.2 601C214.3 601 171.7 601 128.8 601C86 601 43 601 21.5 601L0 601Z" fill="#fa6777"></path><path d="M0 502L21.5 502.8C43 503.7 86 505.3 128.8 509.3C171.7 513.3 214.3 519.7 257.2 522.3C300 525 343 524 385.8 522.3C428.7 520.7 471.3 518.3 514.2 516.7C557 515 600 514 642.8 516.8C685.7 519.7 728.3 526.3 771.2 529.8C814 533.3 857 533.7 878.5 533.8L900 534L900 601L878.5 601C857 601 814 601 771.2 601C728.3 601 685.7 601 642.8 601C600 601 557 601 514.2 601C471.3 601 428.7 601 385.8 601C343 601 300 601 257.2 601C214.3 601 171.7 601 128.8 601C86 601 43 601 21.5 601L0 601Z" fill="#ffb6b9"></path><path d="M0 561L21.5 557.3C43 553.7 86 546.3 128.8 546.8C171.7 547.3 214.3 555.7 257.2 556.8C300 558 343 552 385.8 550.3C428.7 548.7 471.3 551.3 514.2 553.2C557 555 600 556 642.8 558.3C685.7 560.7 728.3 564.3 771.2 563.7C814 563 857 558 878.5 555.5L900 553L900 601L878.5 601C857 601 814 601 771.2 601C728.3 601 685.7 601 642.8 601C600 601 557 601 514.2 601C471.3 601 428.7 601 385.8 601C343 601 300 601 257.2 601C214.3 601 171.7 601 128.8 601C86 601 43 601 21.5 601L0 601Z" fill="#ffffff"></path></svg>