<svg id="visual" viewBox="0 0 900 600" width="900" height="600" xmlns="http://www.w3.org/2000/svg" xmlns:xlink="http://www.w3.org/1999/xlink" version="1.1"><rect x="0" y="0" width="900" height="600" fill="#ffffff"></rect><path d="M0 397L21.5 404C43 411 86 425 128.8 420C171.7 415 214.3 391 257.2 385.3C300 379.7 343 392.3 385.8 398.8C428.7 405.3 471.3 405.7 514.2 402.5C557 399.3 600 392.7 642.8 397C685.7 401.3 728.3 416.7 771.2 415.8C814 415 857 398 878.5 389.5L900 381L900 601L878.5 601C857 601 814 601 771.2 601C728.3 601 685.7 601 642.8 601C600 601 557 601 514.2 601C471.3 601 428.7 601 385.8 601C343 601 300 601 257.2 601C214.3 601 171.7 601 128.8 601C86 601 43 601 21.5 601L0 601Z" fill="#ffffff"></path><path d="M0 456L21.5 450.5C43 445 86 434 128.8 435.5C171.7 437 214.3 451 257.2 459.5C300 468 343 471 385.8 468.8C428.7 466.7 471.3 459.3 514.2 452.5C557 445.7 600 439.3 642.8 438.3C685.7 437.3 728.3 441.7 771.2 440.2C814 438.7 857 431.3 878.5 427.7L900 424L900 601L878.5 601C857 601 814 601 771.2 601C728.3 601 685.7 601 642.8 601C600 601 557 601 514.2 601C471.3 601 428.7 601 385.8 601C343 601 300 601 257.2 601C214.3 601 171.7 601 128.8 601C86 601 43 601 21.5 601L0 601Z" fill="#fcd0d0"></path><path d="M0 440L21.5 450.8C43 461.7 86 483.3 128.8 488C171.7 492.7 214.3 480.3 257.2 478.3C300 476.3 343 484.7 385.8 489.5C428.7 494.3 471.3 495.7 514.2 496C557 496.3 600 495.7 642.8 493C685.7 490.3 728.3 485.7 771.2 484.5C814 483.3 857 485.7 878.5 486.8L900 488L900 601L878.5 601C857 601 814 601 771.2 601C728.3 601 685.7 601 642.8 601C600 601 557 601 514.2 601C471.3 601 428.7 601 385.8 601C343 601 300 601 257.2 601C214.3 601 171.7 601 128.8 601C86 601 43 601 21.5 601L0 601Z" fill="#f3a1a3"></path><path d="M0 508L21.5 505C43 502 86 496 128.8 496.3C171.7 496.7 214.3 503.3 257.2 511C300 518.7 343 527.3 385.8 532.5C428.7 537.7 471.3 539.3 514.2 540.2C557 541 600 541 642.8 533.8C685.7 526.7 728.3 512.3 771.2 504.7C814 497 857 496 878.5 495.5L900 495L900 601L878.5 601C857 601 814 601 771.2 601C728.3 601 685.7 601 642.8 601C600 601 557 601 514.2 601C471.3 601 428.7 601 385.8 601C343 601 300 601 257.2 601C214.3 601 171.7 601 128.8 601C86 601 43 601 21.5 601L0 601Z" fill="#e67078"></path><path d="M0 544L21.5 540.7C43 537.3 86 530.7 128.8 535.5C171.7 540.3 214.3 556.7 257.2 565C300 573.3 343 573.7 385.8 566.7C428.7 559.7 471.3 545.3 514.2 540.3C557 535.3 600 539.7 642.8 540.5C685.7 541.3 728.3 538.7 771.2 538C814 537.3 857 538.7 878.5 539.3L900 540L900 601L878.5 601C857 601 814 601 771.2 601C728.3 601 685.7 601 642.8 601C600 601 557 601 514.2 601C471.3 601 428.7 601 385.8 601C343 601 300 601 257.2 601C214.3 601 171.7 601 128.8 601C86 601 43 601 21.5 601L0 601Z" fill="#d43651"></path></svg>