<svg id="visual" viewBox="0 0 900 600" width="900" height="600" xmlns="http://www.w3.org/2000/svg" xmlns:xlink="http://www.w3.org/1999/xlink" version="1.1"><rect x="0" y="0" width="900" height="600" fill="#ffffff"></rect><path d="M0 419L21.5 406.7C43 394.3 86 369.7 128.8 356.5C171.7 343.3 214.3 341.7 257.2 351.8C300 362 343 384 385.8 389.7C428.7 395.3 471.3 384.7 514.2 365.7C557 346.7 600 319.3 642.8 326.7C685.7 334 728.3 376 771.2 382.8C814 389.7 857 361.3 878.5 347.2L900 333L900 601L878.5 601C857 601 814 601 771.2 601C728.3 601 685.7 601 642.8 601C600 601 557 601 514.2 601C471.3 601 428.7 601 385.8 601C343 601 300 601 257.2 601C214.3 601 171.7 601 128.8 601C86 601 43 601 21.5 601L0 601Z" fill="#f43f5e"></path><path d="M0 345L21.5 357.3C43 369.7 86 394.3 128.8 396.8C171.7 399.3 214.3 379.7 257.2 368C300 356.3 343 352.7 385.8 361.2C428.7 369.7 471.3 390.3 514.2 389.8C557 389.3 600 367.7 642.8 368.2C685.7 368.7 728.3 391.3 771.2 406C814 420.7 857 427.3 878.5 430.7L900 434L900 601L878.5 601C857 601 814 601 771.2 601C728.3 601 685.7 601 642.8 601C600 601 557 601 514.2 601C471.3 601 428.7 601 385.8 601C343 601 300 601 257.2 601C214.3 601 171.7 601 128.8 601C86 601 43 601 21.5 601L0 601Z" fill="#fa6777"></path><path d="M0 371L21.5 390.2C43 409.3 86 447.7 128.8 463.7C171.7 479.7 214.3 473.3 257.2 462.8C300 452.3 343 437.7 385.8 437.2C428.7 436.7 471.3 450.3 514.2 456.7C557 463 600 462 642.8 459.3C685.7 456.7 728.3 452.3 771.2 452C814 451.7 857 455.3 878.5 457.2L900 459L900 601L878.5 601C857 601 814 601 771.2 601C728.3 601 685.7 601 642.8 601C600 601 557 601 514.2 601C471.3 601 428.7 601 385.8 601C343 601 300 601 257.2 601C214.3 601 171.7 601 128.8 601C86 601 43 601 21.5 601L0 601Z" fill="#fe8991"></path><path d="M0 485L21.5 486C43 487 86 489 128.8 483C171.7 477 214.3 463 257.2 465.5C300 468 343 487 385.8 482.8C428.7 478.7 471.3 451.3 514.2 442C557 432.7 600 441.3 642.8 455.2C685.7 469 728.3 488 771.2 490.5C814 493 857 479 878.5 472L900 465L900 601L878.5 601C857 601 814 601 771.2 601C728.3 601 685.7 601 642.8 601C600 601 557 601 514.2 601C471.3 601 428.7 601 385.8 601C343 601 300 601 257.2 601C214.3 601 171.7 601 128.8 601C86 601 43 601 21.5 601L0 601Z" fill="#ffa7ab"></path><path d="M0 480L21.5 481.7C43 483.3 86 486.7 128.8 490.8C171.7 495 214.3 500 257.2 495.8C300 491.7 343 478.3 385.8 469.8C428.7 461.3 471.3 457.7 514.2 462.8C557 468 600 482 642.8 481.2C685.7 480.3 728.3 464.7 771.2 459.8C814 455 857 461 878.5 464L900 467L900 601L878.5 601C857 601 814 601 771.2 601C728.3 601 685.7 601 642.8 601C600 601 557 601 514.2 601C471.3 601 428.7 601 385.8 601C343 601 300 601 257.2 601C214.3 601 171.7 601 128.8 601C86 601 43 601 21.5 601L0 601Z" fill="#ffc5c6"></path><path d="M0 544L21.5 539.8C43 535.7 86 527.3 128.8 522.5C171.7 517.7 214.3 516.3 257.2 514.7C300 513 343 511 385.8 515C428.7 519 471.3 529 514.2 533.5C557 538 600 537 642.8 534.5C685.7 532 728.3 528 771.2 524.2C814 520.3 857 516.7 878.5 514.8L900 513L900 601L878.5 601C857 601 814 601 771.2 601C728.3 601 685.7 601 642.8 601C600 601 557 601 514.2 601C471.3 601 428.7 601 385.8 601C343 601 300 601 257.2 601C214.3 601 171.7 601 128.8 601C86 601 43 601 21.5 601L0 601Z" fill="#ffe2e2"></path><path d="M0 563L21.5 565.3C43 567.7 86 572.3 128.8 570.7C171.7 569 214.3 561 257.2 559.8C300 558.7 343 564.3 385.8 563.3C428.7 562.3 471.3 554.7 514.2 549.2C557 543.7 600 540.3 642.8 545.5C685.7 550.7 728.3 564.3 771.2 563.8C814 563.3 857 548.7 878.5 541.3L900 534L900 601L878.5 601C857 601 814 601 771.2 601C728.3 601 685.7 601 642.8 601C600 601 557 601 514.2 601C471.3 601 428.7 601 385.8 601C343 601 300 601 257.2 601C214.3 601 171.7 601 128.8 601C86 601 43 601 21.5 601L0 601Z" fill="#ffffff"></path></svg>