<svg id="visual" viewBox="0 0 900 600" width="900" height="600" xmlns="http://www.w3.org/2000/svg" xmlns:xlink="http://www.w3.org/1999/xlink" version="1.1"><rect x="0" y="0" width="900" height="600" fill="#ffffff"></rect><path d="M0 349L10.7 358.3C21.3 367.7 42.7 386.3 64.2 401.5C85.7 416.7 107.3 428.3 128.8 422.7C150.3 417 171.7 394 193 378.2C214.3 362.3 235.7 353.7 257 357.5C278.3 361.3 299.7 377.7 321.2 380.8C342.7 384 364.3 374 385.8 385C407.3 396 428.7 428 450 441.8C471.3 455.7 492.7 451.3 514.2 435.8C535.7 420.3 557.3 393.7 578.8 387.3C600.3 381 621.7 395 643 389.7C664.3 384.3 685.7 359.7 707 350.5C728.3 341.3 749.7 347.7 771.2 363.7C792.7 379.7 814.3 405.3 835.8 408C857.3 410.7 878.7 390.3 889.3 380.2L900 370L900 601L889.3 601C878.7 601 857.3 601 835.8 601C814.3 601 792.7 601 771.2 601C749.7 601 728.3 601 707 601C685.7 601 664.3 601 643 601C621.7 601 600.3 601 578.8 601C557.3 601 535.7 601 514.2 601C492.7 601 471.3 601 450 601C428.7 601 407.3 601 385.8 601C364.3 601 342.7 601 321.2 601C299.7 601 278.3 601 257 601C235.7 601 214.3 601 193 601C171.7 601 150.3 601 128.8 601C107.3 601 85.7 601 64.2 601C42.7 601 21.3 601 10.7 601L0 601Z" fill="#ffffff"></path><path d="M0 388L10.7 403.3C21.3 418.7 42.7 449.3 64.2 452.7C85.7 456 107.3 432 128.8 424.7C150.3 417.3 171.7 426.7 193 434.8C214.3 443 235.7 450 257 452C278.3 454 299.7 451 321.2 444.5C342.7 438 364.3 428 385.8 416.7C407.3 405.3 428.7 392.7 450 392.2C471.3 391.7 492.7 403.3 514.2 421C535.7 438.7 557.3 462.3 578.8 456.5C600.3 450.7 621.7 415.3 643 411.5C664.3 407.7 685.7 435.3 707 438C728.3 440.7 749.7 418.3 771.2 406.3C792.7 394.3 814.3 392.7 835.8 400.3C857.3 408 878.7 425 889.3 433.5L900 442L900 601L889.3 601C878.7 601 857.3 601 835.8 601C814.3 601 792.7 601 771.2 601C749.7 601 728.3 601 707 601C685.7 601 664.3 601 643 601C621.7 601 600.3 601 578.8 601C557.3 601 535.7 601 514.2 601C492.7 601 471.3 601 450 601C428.7 601 407.3 601 385.8 601C364.3 601 342.7 601 321.2 601C299.7 601 278.3 601 257 601C235.7 601 214.3 601 193 601C171.7 601 150.3 601 128.8 601C107.3 601 85.7 601 64.2 601C42.7 601 21.3 601 10.7 601L0 601Z" fill="#fcd0d0"></path><path d="M0 489L10.7 485C21.3 481 42.7 473 64.2 478.5C85.7 484 107.3 503 128.8 504.2C150.3 505.3 171.7 488.7 193 474C214.3 459.3 235.7 446.7 257 446.7C278.3 446.7 299.7 459.3 321.2 474.5C342.7 489.7 364.3 507.3 385.8 511.3C407.3 515.3 428.7 505.7 450 503.7C471.3 501.7 492.7 507.3 514.2 499C535.7 490.7 557.3 468.3 578.8 469.2C600.3 470 621.7 494 643 505.3C664.3 516.7 685.7 515.3 707 515.5C728.3 515.7 749.7 517.3 771.2 508.5C792.7 499.7 814.3 480.3 835.8 473C857.3 465.7 878.7 470.3 889.3 472.7L900 475L900 601L889.3 601C878.7 601 857.3 601 835.8 601C814.3 601 792.7 601 771.2 601C749.7 601 728.3 601 707 601C685.7 601 664.3 601 643 601C621.7 601 600.3 601 578.8 601C557.3 601 535.7 601 514.2 601C492.7 601 471.3 601 450 601C428.7 601 407.3 601 385.8 601C364.3 601 342.7 601 321.2 601C299.7 601 278.3 601 257 601C235.7 601 214.3 601 193 601C171.7 601 150.3 601 128.8 601C107.3 601 85.7 601 64.2 601C42.7 601 21.3 601 10.7 601L0 601Z" fill="#f3a1a3"></path><path d="M0 525L10.7 521.3C21.3 517.7 42.7 510.3 64.2 509C85.7 507.7 107.3 512.3 128.8 513.3C150.3 514.3 171.7 511.7 193 515.5C214.3 519.3 235.7 529.7 257 533C278.3 536.3 299.7 532.7 321.2 531.2C342.7 529.7 364.3 530.3 385.8 528.7C407.3 527 428.7 523 450 520.7C471.3 518.3 492.7 517.7 514.2 511.2C535.7 504.7 557.3 492.3 578.8 491.5C600.3 490.7 621.7 501.3 643 505.8C664.3 510.3 685.7 508.7 707 506.2C728.3 503.7 749.7 500.3 771.2 496.2C792.7 492 814.3 487 835.8 484C857.3 481 878.7 480 889.3 479.5L900 479L900 601L889.3 601C878.7 601 857.3 601 835.8 601C814.3 601 792.7 601 771.2 601C749.7 601 728.3 601 707 601C685.7 601 664.3 601 643 601C621.7 601 600.3 601 578.8 601C557.3 601 535.7 601 514.2 601C492.7 601 471.3 601 450 601C428.7 601 407.3 601 385.8 601C364.3 601 342.7 601 321.2 601C299.7 601 278.3 601 257 601C235.7 601 214.3 601 193 601C171.7 601 150.3 601 128.8 601C107.3 601 85.7 601 64.2 601C42.7 601 21.3 601 10.7 601L0 601Z" fill="#e67078"></path><path d="M0 515L10.7 525.2C21.3 535.3 42.7 555.7 64.2 564.2C85.7 572.7 107.3 569.3 128.8 559C150.3 548.7 171.7 531.3 193 528C214.3 524.7 235.7 535.3 257 544.2C278.3 553 299.7 560 321.2 564C342.7 568 364.3 569 385.8 571C407.3 573 428.7 576 450 571.3C471.3 566.7 492.7 554.3 514.2 551.7C535.7 549 557.3 556 578.8 562C600.3 568 621.7 573 643 568.8C664.3 564.7 685.7 551.3 707 551C728.3 550.7 749.7 563.3 771.2 570.3C792.7 577.3 814.3 578.7 835.8 569.7C857.3 560.7 878.7 541.3 889.3 531.7L900 522L900 601L889.3 601C878.7 601 857.3 601 835.8 601C814.3 601 792.7 601 771.2 601C749.7 601 728.3 601 707 601C685.7 601 664.3 601 643 601C621.7 601 600.3 601 578.8 601C557.3 601 535.7 601 514.2 601C492.7 601 471.3 601 450 601C428.7 601 407.3 601 385.8 601C364.3 601 342.7 601 321.2 601C299.7 601 278.3 601 257 601C235.7 601 214.3 601 193 601C171.7 601 150.3 601 128.8 601C107.3 601 85.7 601 64.2 601C42.7 601 21.3 601 10.7 601L0 601Z" fill="#d43651"></path></svg>