<svg id="visual" viewBox="0 0 900 600" width="900" height="600" xmlns="http://www.w3.org/2000/svg" xmlns:xlink="http://www.w3.org/1999/xlink" version="1.1"><rect x="0" y="0" width="900" height="600" fill="#ffffff"></rect><path d="M0 293L16.7 302.5C33.3 312 66.7 331 100 343.7C133.3 356.3 166.7 362.7 200 374.5C233.3 386.3 266.7 403.7 300 392.2C333.3 380.7 366.7 340.3 400 315.8C433.3 291.3 466.7 282.7 500 304.8C533.3 327 566.7 380 600 386C633.3 392 666.7 351 700 349.2C733.3 347.3 766.7 384.7 800 378.8C833.3 373 866.7 324 883.3 299.5L900 275L900 601L883.3 601C866.7 601 833.3 601 800 601C766.7 601 733.3 601 700 601C666.7 601 633.3 601 600 601C566.7 601 533.3 601 500 601C466.7 601 433.3 601 400 601C366.7 601 333.3 601 300 601C266.7 601 233.3 601 200 601C166.7 601 133.3 601 100 601C66.7 601 33.3 601 16.7 601L0 601Z" fill="#ffffff"></path><path d="M0 358L16.7 356.7C33.3 355.3 66.7 352.7 100 371.3C133.3 390 166.7 430 200 445.3C233.3 460.7 266.7 451.3 300 442.3C333.3 433.3 366.7 424.7 400 424.7C433.3 424.7 466.7 433.3 500 423.5C533.3 413.7 566.7 385.3 600 380C633.3 374.7 666.7 392.3 700 387C733.3 381.7 766.7 353.3 800 350.2C833.3 347 866.7 369 883.3 380L900 391L900 601L883.3 601C866.7 601 833.3 601 800 601C766.7 601 733.3 601 700 601C666.7 601 633.3 601 600 601C566.7 601 533.3 601 500 601C466.7 601 433.3 601 400 601C366.7 601 333.3 601 300 601C266.7 601 233.3 601 200 601C166.7 601 133.3 601 100 601C66.7 601 33.3 601 16.7 601L0 601Z" fill="#fcd0d0"></path><path d="M0 513L16.7 498.2C33.3 483.3 66.7 453.7 100 434.8C133.3 416 166.7 408 200 408.5C233.3 409 266.7 418 300 433.7C333.3 449.3 366.7 471.7 400 464.7C433.3 457.7 466.7 421.3 500 412C533.3 402.7 566.7 420.3 600 435.3C633.3 450.3 666.7 462.7 700 474.7C733.3 486.7 766.7 498.3 800 492.3C833.3 486.3 866.7 462.7 883.3 450.8L900 439L900 601L883.3 601C866.7 601 833.3 601 800 601C766.7 601 733.3 601 700 601C666.7 601 633.3 601 600 601C566.7 601 533.3 601 500 601C466.7 601 433.3 601 400 601C366.7 601 333.3 601 300 601C266.7 601 233.3 601 200 601C166.7 601 133.3 601 100 601C66.7 601 33.3 601 16.7 601L0 601Z" fill="#f3a1a3"></path><path d="M0 495L16.7 500.3C33.3 505.7 66.7 516.3 100 508.3C133.3 500.3 166.7 473.7 200 467.3C233.3 461 266.7 475 300 483.7C333.3 492.3 366.7 495.7 400 503.3C433.3 511 466.7 523 500 526.5C533.3 530 566.7 525 600 527.5C633.3 530 666.7 540 700 540.3C733.3 540.7 766.7 531.3 800 527.2C833.3 523 866.7 524 883.3 524.5L900 525L900 601L883.3 601C866.7 601 833.3 601 800 601C766.7 601 733.3 601 700 601C666.7 601 633.3 601 600 601C566.7 601 533.3 601 500 601C466.7 601 433.3 601 400 601C366.7 601 333.3 601 300 601C266.7 601 233.3 601 200 601C166.7 601 133.3 601 100 601C66.7 601 33.3 601 16.7 601L0 601Z" fill="#e67078"></path><path d="M0 539L16.7 534.2C33.3 529.3 66.7 519.7 100 516.5C133.3 513.3 166.7 516.7 200 525.7C233.3 534.7 266.7 549.3 300 549.7C333.3 550 366.7 536 400 535.5C433.3 535 466.7 548 500 558.5C533.3 569 566.7 577 600 571C633.3 565 666.7 545 700 534.2C733.3 523.3 766.7 521.7 800 531.3C833.3 541 866.7 562 883.3 572.5L900 583L900 601L883.3 601C866.7 601 833.3 601 800 601C766.7 601 733.3 601 700 601C666.7 601 633.3 601 600 601C566.7 601 533.3 601 500 601C466.7 601 433.3 601 400 601C366.7 601 333.3 601 300 601C266.7 601 233.3 601 200 601C166.7 601 133.3 601 100 601C66.7 601 33.3 601 16.7 601L0 601Z" fill="#d43651"></path></svg>