<svg id="visual" viewBox="0 0 900 600" width="900" height="600" xmlns="http://www.w3.org/2000/svg" xmlns:xlink="http://www.w3.org/1999/xlink" version="1.1"><rect x="0" y="0" width="900" height="600" fill="#ffffff"></rect><path d="M0 348L21.5 343.3C43 338.7 86 329.3 128.8 292.2C171.7 255 214.3 190 257.2 197.2C300 204.3 343 283.7 385.8 299.3C428.7 315 471.3 267 514.2 226.8C557 186.7 600 154.3 642.8 156.5C685.7 158.7 728.3 195.3 771.2 220.2C814 245 857 258 878.5 264.5L900 271L900 601L878.5 601C857 601 814 601 771.2 601C728.3 601 685.7 601 642.8 601C600 601 557 601 514.2 601C471.3 601 428.7 601 385.8 601C343 601 300 601 257.2 601C214.3 601 171.7 601 128.8 601C86 601 43 601 21.5 601L0 601Z" fill="#ffffff"></path><path d="M0 358L21.5 326.7C43 295.3 86 232.7 128.8 231.7C171.7 230.7 214.3 291.3 257.2 331.3C300 371.3 343 390.7 385.8 398.2C428.7 405.7 471.3 401.3 514.2 397.2C557 393 600 389 642.8 353.5C685.7 318 728.3 251 771.2 229.8C814 208.7 857 233.3 878.5 245.7L900 258L900 601L878.5 601C857 601 814 601 771.2 601C728.3 601 685.7 601 642.8 601C600 601 557 601 514.2 601C471.3 601 428.7 601 385.8 601C343 601 300 601 257.2 601C214.3 601 171.7 601 128.8 601C86 601 43 601 21.5 601L0 601Z" fill="#ffc8ca"></path><path d="M0 351L21.5 360.7C43 370.3 86 389.7 128.8 373.2C171.7 356.7 214.3 304.3 257.2 292.2C300 280 343 308 385.8 337.2C428.7 366.3 471.3 396.7 514.2 402.8C557 409 600 391 642.8 386C685.7 381 728.3 389 771.2 364.2C814 339.3 857 281.7 878.5 252.8L900 224L900 601L878.5 601C857 601 814 601 771.2 601C728.3 601 685.7 601 642.8 601C600 601 557 601 514.2 601C471.3 601 428.7 601 385.8 601C343 601 300 601 257.2 601C214.3 601 171.7 601 128.8 601C86 601 43 601 21.5 601L0 601Z" fill="#fe9097"></path><path d="M0 397L21.5 372.3C43 347.7 86 298.3 128.8 283.5C171.7 268.7 214.3 288.3 257.2 307C300 325.7 343 343.3 385.8 358.2C428.7 373 471.3 385 514.2 384.2C557 383.3 600 369.7 642.8 361.7C685.7 353.7 728.3 351.3 771.2 358.7C814 366 857 383 878.5 391.5L900 400L900 601L878.5 601C857 601 814 601 771.2 601C728.3 601 685.7 601 642.8 601C600 601 557 601 514.2 601C471.3 601 428.7 601 385.8 601C343 601 300 601 257.2 601C214.3 601 171.7 601 128.8 601C86 601 43 601 21.5 601L0 601Z" fill="#f65067"></path><path d="M0 466L21.5 440.7C43 415.3 86 364.7 128.8 357.2C171.7 349.7 214.3 385.3 257.2 412.7C300 440 343 459 385.8 443.2C428.7 427.3 471.3 376.7 514.2 358.8C557 341 600 356 642.8 366.5C685.7 377 728.3 383 771.2 378.8C814 374.7 857 360.3 878.5 353.2L900 346L900 601L878.5 601C857 601 814 601 771.2 601C728.3 601 685.7 601 642.8 601C600 601 557 601 514.2 601C471.3 601 428.7 601 385.8 601C343 601 300 601 257.2 601C214.3 601 171.7 601 128.8 601C86 601 43 601 21.5 601L0 601Z" fill="#f43f5e"></path><path d="M0 466L21.5 472.2C43 478.3 86 490.7 128.8 486.8C171.7 483 214.3 463 257.2 449.8C300 436.7 343 430.3 385.8 422.7C428.7 415 471.3 406 514.2 418.8C557 431.7 600 466.3 642.8 478.7C685.7 491 728.3 481 771.2 477.5C814 474 857 477 878.5 478.5L900 480L900 601L878.5 601C857 601 814 601 771.2 601C728.3 601 685.7 601 642.8 601C600 601 557 601 514.2 601C471.3 601 428.7 601 385.8 601C343 601 300 601 257.2 601C214.3 601 171.7 601 128.8 601C86 601 43 601 21.5 601L0 601Z" fill="#f65067"></path><path d="M0 457L21.5 465.5C43 474 86 491 128.8 503.2C171.7 515.3 214.3 522.7 257.2 513C300 503.3 343 476.7 385.8 478C428.7 479.3 471.3 508.7 514.2 508.2C557 507.7 600 477.3 642.8 471.5C685.7 465.7 728.3 484.3 771.2 488.8C814 493.3 857 483.7 878.5 478.8L900 474L900 601L878.5 601C857 601 814 601 771.2 601C728.3 601 685.7 601 642.8 601C600 601 557 601 514.2 601C471.3 601 428.7 601 385.8 601C343 601 300 601 257.2 601C214.3 601 171.7 601 128.8 601C86 601 43 601 21.5 601L0 601Z" fill="#fe9097"></path><path d="M0 482L21.5 487.3C43 492.7 86 503.3 128.8 511.7C171.7 520 214.3 526 257.2 530.2C300 534.3 343 536.7 385.8 531.2C428.7 525.7 471.3 512.3 514.2 511.8C557 511.3 600 523.7 642.8 533.8C685.7 544 728.3 552 771.2 554.7C814 557.3 857 554.7 878.5 553.3L900 552L900 601L878.5 601C857 601 814 601 771.2 601C728.3 601 685.7 601 642.8 601C600 601 557 601 514.2 601C471.3 601 428.7 601 385.8 601C343 601 300 601 257.2 601C214.3 601 171.7 601 128.8 601C86 601 43 601 21.5 601L0 601Z" fill="#ffc8ca"></path><path d="M0 576L21.5 569C43 562 86 548 128.8 543.2C171.7 538.3 214.3 542.7 257.2 550.3C300 558 343 569 385.8 570.7C428.7 572.3 471.3 564.7 514.2 561.3C557 558 600 559 642.8 564C685.7 569 728.3 578 771.2 570.5C814 563 857 539 878.5 527L900 515L900 601L878.5 601C857 601 814 601 771.2 601C728.3 601 685.7 601 642.8 601C600 601 557 601 514.2 601C471.3 601 428.7 601 385.8 601C343 601 300 601 257.2 601C214.3 601 171.7 601 128.8 601C86 601 43 601 21.5 601L0 601Z" fill="#ffffff"></path></svg>