<svg id="visual" viewBox="0 0 900 600" width="900" height="600" xmlns="http://www.w3.org/2000/svg" xmlns:xlink="http://www.w3.org/1999/xlink" version="1.1"><rect x="0" y="0" width="900" height="600" fill="#ffffff"></rect><path d="M0 326L16.7 325.3C33.3 324.7 66.7 323.3 100 325.5C133.3 327.7 166.7 333.3 200 334.3C233.3 335.3 266.7 331.7 300 327.8C333.3 324 366.7 320 400 325.8C433.3 331.7 466.7 347.3 500 342.3C533.3 337.3 566.7 311.7 600 304.5C633.3 297.3 666.7 308.7 700 323.7C733.3 338.7 766.7 357.3 800 352C833.3 346.7 866.7 317.3 883.3 302.7L900 288L900 601L883.3 601C866.7 601 833.3 601 800 601C766.7 601 733.3 601 700 601C666.7 601 633.3 601 600 601C566.7 601 533.3 601 500 601C466.7 601 433.3 601 400 601C366.7 601 333.3 601 300 601C266.7 601 233.3 601 200 601C166.7 601 133.3 601 100 601C66.7 601 33.3 601 16.7 601L0 601Z" fill="#ffffff"></path><path d="M0 417L16.7 401.5C33.3 386 66.7 355 100 347.5C133.3 340 166.7 356 200 365.2C233.3 374.3 266.7 376.7 300 375.2C333.3 373.7 366.7 368.3 400 358.8C433.3 349.3 466.7 335.7 500 337.7C533.3 339.7 566.7 357.3 600 365.7C633.3 374 666.7 373 700 377.2C733.3 381.3 766.7 390.7 800 383.5C833.3 376.3 866.7 352.7 883.3 340.8L900 329L900 601L883.3 601C866.7 601 833.3 601 800 601C766.7 601 733.3 601 700 601C666.7 601 633.3 601 600 601C566.7 601 533.3 601 500 601C466.7 601 433.3 601 400 601C366.7 601 333.3 601 300 601C266.7 601 233.3 601 200 601C166.7 601 133.3 601 100 601C66.7 601 33.3 601 16.7 601L0 601Z" fill="#ffc0c2"></path><path d="M0 374L16.7 370.7C33.3 367.3 66.7 360.7 100 365.7C133.3 370.7 166.7 387.3 200 398C233.3 408.7 266.7 413.3 300 407C333.3 400.7 366.7 383.3 400 377C433.3 370.7 466.7 375.3 500 387.5C533.3 399.7 566.7 419.3 600 430.5C633.3 441.7 666.7 444.3 700 434.2C733.3 424 766.7 401 800 395C833.3 389 866.7 400 883.3 405.5L900 411L900 601L883.3 601C866.7 601 833.3 601 800 601C766.7 601 733.3 601 700 601C666.7 601 633.3 601 600 601C566.7 601 533.3 601 500 601C466.7 601 433.3 601 400 601C366.7 601 333.3 601 300 601C266.7 601 233.3 601 200 601C166.7 601 133.3 601 100 601C66.7 601 33.3 601 16.7 601L0 601Z" fill="#fd7f89"></path><path d="M0 460L16.7 452.8C33.3 445.7 66.7 431.3 100 419.8C133.3 408.3 166.7 399.7 200 407C233.3 414.3 266.7 437.7 300 438.7C333.3 439.7 366.7 418.3 400 410.8C433.3 403.3 466.7 409.7 500 412C533.3 414.3 566.7 412.7 600 418.8C633.3 425 666.7 439 700 447.3C733.3 455.7 766.7 458.3 800 449C833.3 439.7 866.7 418.3 883.3 407.7L900 397L900 601L883.3 601C866.7 601 833.3 601 800 601C766.7 601 733.3 601 700 601C666.7 601 633.3 601 600 601C566.7 601 533.3 601 500 601C466.7 601 433.3 601 400 601C366.7 601 333.3 601 300 601C266.7 601 233.3 601 200 601C166.7 601 133.3 601 100 601C66.7 601 33.3 601 16.7 601L0 601Z" fill="#f43f5e"></path><path d="M0 428L16.7 437.8C33.3 447.7 66.7 467.3 100 476.2C133.3 485 166.7 483 200 473.5C233.3 464 266.7 447 300 450.3C333.3 453.7 366.7 477.3 400 488.7C433.3 500 466.7 499 500 487C533.3 475 566.7 452 600 445.8C633.3 439.7 666.7 450.3 700 450.2C733.3 450 766.7 439 800 440.2C833.3 441.3 866.7 454.7 883.3 461.3L900 468L900 601L883.3 601C866.7 601 833.3 601 800 601C766.7 601 733.3 601 700 601C666.7 601 633.3 601 600 601C566.7 601 533.3 601 500 601C466.7 601 433.3 601 400 601C366.7 601 333.3 601 300 601C266.7 601 233.3 601 200 601C166.7 601 133.3 601 100 601C66.7 601 33.3 601 16.7 601L0 601Z" fill="#f43f5e"></path><path d="M0 527L16.7 518.3C33.3 509.7 66.7 492.3 100 484.8C133.3 477.3 166.7 479.7 200 482.8C233.3 486 266.7 490 300 489.3C333.3 488.7 366.7 483.3 400 487C433.3 490.7 466.7 503.3 500 504C533.3 504.7 566.7 493.3 600 484.3C633.3 475.3 666.7 468.7 700 467.2C733.3 465.7 766.7 469.3 800 470.5C833.3 471.7 866.7 470.3 883.3 469.7L900 469L900 601L883.3 601C866.7 601 833.3 601 800 601C766.7 601 733.3 601 700 601C666.7 601 633.3 601 600 601C566.7 601 533.3 601 500 601C466.7 601 433.3 601 400 601C366.7 601 333.3 601 300 601C266.7 601 233.3 601 200 601C166.7 601 133.3 601 100 601C66.7 601 33.3 601 16.7 601L0 601Z" fill="#fd7f89"></path><path d="M0 501L16.7 503.2C33.3 505.3 66.7 509.7 100 515.2C133.3 520.7 166.7 527.3 200 531.2C233.3 535 266.7 536 300 535.8C333.3 535.7 366.7 534.3 400 532.3C433.3 530.3 466.7 527.7 500 524C533.3 520.3 566.7 515.7 600 511.8C633.3 508 666.7 505 700 511.3C733.3 517.7 766.7 533.3 800 539.3C833.3 545.3 866.7 541.7 883.3 539.8L900 538L900 601L883.3 601C866.7 601 833.3 601 800 601C766.7 601 733.3 601 700 601C666.7 601 633.3 601 600 601C566.7 601 533.3 601 500 601C466.7 601 433.3 601 400 601C366.7 601 333.3 601 300 601C266.7 601 233.3 601 200 601C166.7 601 133.3 601 100 601C66.7 601 33.3 601 16.7 601L0 601Z" fill="#ffc0c2"></path><path d="M0 577L16.7 570.3C33.3 563.7 66.7 550.3 100 546.5C133.3 542.7 166.7 548.3 200 548C233.3 547.7 266.7 541.3 300 545.7C333.3 550 366.7 565 400 565.5C433.3 566 466.7 552 500 545C533.3 538 566.7 538 600 539C633.3 540 666.7 542 700 548.3C733.3 554.7 766.7 565.3 800 569.5C833.3 573.7 866.7 571.3 883.3 570.2L900 569L900 601L883.3 601C866.7 601 833.3 601 800 601C766.7 601 733.3 601 700 601C666.7 601 633.3 601 600 601C566.7 601 533.3 601 500 601C466.7 601 433.3 601 400 601C366.7 601 333.3 601 300 601C266.7 601 233.3 601 200 601C166.7 601 133.3 601 100 601C66.7 601 33.3 601 16.7 601L0 601Z" fill="#ffffff"></path></svg>