<svg xmlns="http://www.w3.org/2000/svg" xmlns:xlink="http://www.w3.org/1999/xlink" width="1000" zoomAndPan="magnify" viewBox="0 0 750 299.999988" height="400" preserveAspectRatio="xMidYMid meet" version="1.0"><defs><g/></defs><path stroke-linecap="butt" transform="matrix(6.247565, 0, 0, 6.247565, 374.59396, 150.214514)" fill="none" stroke-linejoin="miter" d="M 2.203325 5.237094 L 2.203325 5.02326 L 13.935397 5.02326 L 13.935397 5.27836 C 13.480845 5.27836 13.12133 5.410286 12.857477 5.674139 C 12.593624 5.934865 12.4048 6.271246 12.290381 6.684533 C 12.179087 7.097819 12.130318 7.531738 12.144074 7.98629 C 12.158454 8.441467 12.206598 8.861631 12.290381 9.246781 C 12.574867 10.454752 12.856226 11.55393 13.133834 12.543065 C 13.411443 13.529075 13.685925 14.445682 13.956655 15.292887 C 14.227386 16.140092 14.486236 16.961037 14.732582 17.755722 C 14.98268 18.551032 15.222148 19.375103 15.450987 20.229186 C 15.64919 19.420746 15.860522 18.493509 16.086235 17.448727 C 16.315699 16.400193 16.528907 15.315396 16.72711 14.193709 C 16.928438 13.068895 17.077246 11.97722 17.174784 10.918682 C 17.275448 9.85952 17.292955 8.908524 17.226679 8.064445 C 17.164155 7.217865 16.990962 6.542602 16.705851 6.038656 C 16.421365 5.532209 15.987446 5.27836 15.404094 5.27836 L 14.914528 5.27836 L 14.914528 5.02326 L 22.293654 5.02326 L 22.293654 5.237094 C 21.696546 5.237094 21.220736 5.355265 20.866848 5.590981 C 20.51296 5.823572 20.238478 6.136194 20.044027 6.528222 C 19.853328 6.917123 19.67951 7.34604 19.523199 7.814973 C 19.138049 8.994808 18.792289 10.062724 18.48717 11.017471 C 18.181426 11.968467 17.89694 12.867567 17.633088 13.714772 C 17.372361 14.558226 17.121013 15.400429 16.877793 16.240756 C 16.635199 17.080459 16.38135 17.965804 16.117497 18.896166 C 15.857396 19.826529 15.577912 20.861307 15.279045 21.999876 L 9.222935 21.999876 C 8.924069 20.861307 8.643335 19.826529 8.379482 18.896166 C 8.115629 17.965804 7.86178 17.080459 7.619185 16.240756 C 7.379092 15.400429 7.127744 14.558226 6.863891 13.714772 C 6.600038 12.867567 6.315552 11.968467 6.009808 11.017471 C 5.704064 10.062724 5.35893 8.994808 4.97378 7.814973 C 4.83435 7.34604 4.661158 6.917123 4.452952 6.528222 C 4.247872 6.136194 3.970264 5.823572 3.619502 5.590981 C 3.272492 5.355265 2.800433 5.237094 2.203325 5.237094 Z M 32.043078 22.406284 C 30.806971 22.406284 29.650896 22.175569 28.574851 21.713514 C 27.501933 21.252084 26.559066 20.616837 25.746874 19.807771 C 24.937809 18.994955 24.302562 18.052712 23.841132 16.979794 C 23.379077 15.90375 23.148362 14.754552 23.148362 13.532826 C 23.148362 12.310475 23.353442 11.163153 23.762976 10.090235 C 24.175637 9.01419 24.758989 8.071323 25.512408 7.262883 C 26.269578 6.450066 27.163051 5.813568 28.194703 5.351513 C 29.22573 4.890083 30.359297 4.658743 31.594778 4.658743 C 33.216035 4.658743 34.587819 4.908841 35.708881 5.409036 C 36.833695 5.905479 37.690904 6.570113 38.281134 7.403563 C 38.871364 8.233261 39.166479 9.152994 39.166479 10.163388 C 39.166479 11.569561 38.590629 12.634976 37.43768 13.360884 C 36.285356 14.086167 34.422755 14.448808 31.849878 14.448808 L 29.928504 14.448808 C 30.598765 15.501093 31.469729 16.304531 32.542648 16.860373 C 33.615566 17.415589 34.827288 17.693197 36.177814 17.693197 C 36.663628 17.693197 37.126934 17.646304 37.567731 17.552518 C 38.009153 17.458731 38.449949 17.319927 38.890746 17.136105 C 38.890746 17.875768 38.701297 18.566663 38.323025 19.208788 C 37.947879 19.847787 37.435804 20.408005 36.786801 20.890693 C 36.140925 21.373381 35.408764 21.746652 34.58907 22.010505 C 33.773127 22.274358 32.924671 22.406284 32.043078 22.406284 Z M 29.694037 14.043025 L 29.824088 14.043025 C 30.536241 14.043025 31.133348 13.900469 31.616036 13.615984 C 32.098099 13.331498 32.488877 12.95135 32.787743 12.475539 C 33.085984 11.999729 33.299818 11.47765 33.427993 10.908053 C 33.556167 10.338456 33.620568 9.778238 33.620568 9.226148 C 33.620568 8.767844 33.573674 8.300787 33.479888 7.824977 C 33.389853 7.349792 33.244171 6.910245 33.042842 6.507589 C 32.84464 6.10118 32.593292 5.769801 32.287548 5.512826 C 31.981804 5.255851 31.622914 5.127676 31.209628 5.127676 C 30.72694 5.127676 30.317405 5.26648 29.980399 5.544088 C 29.647144 5.821696 29.382041 6.181211 29.183839 6.622008 C 28.986262 7.062805 28.843706 7.521109 28.756797 7.996919 C 28.67364 8.472729 28.631749 8.917278 28.631749 9.329938 C 28.631749 10.267179 28.723659 11.131891 28.908106 11.923449 C 29.091928 12.711256 29.353905 13.417781 29.694037 14.043025 Z M 29.694037 14.043025 " stroke="#171716" stroke-width="1.333331" stroke-opacity="1" stroke-miterlimit="4"/><g fill="#171716" fill-opacity="1"><g transform="translate(499.502057, 153.633147)"><g><path d="M 5.328125 -55.84375 C 5.328125 -62.59375 6.191406 -69.097656 7.921875 -75.359375 C 9.660156 -81.617188 12.304688 -87.238281 15.859375 -92.21875 C 19.410156 -97.195312 23.914062 -101.148438 29.375 -104.078125 C 34.84375 -107.015625 41.3125 -108.484375 48.78125 -108.484375 C 54.28125 -108.484375 59.1875 -107.4375 63.5 -105.34375 C 67.8125 -103.257812 71.609375 -100.707031 74.890625 -97.6875 L 74.890625 -124.078125 C 74.890625 -128.242188 74.378906 -131.613281 73.359375 -134.1875 C 72.335938 -136.769531 71.140625 -138.660156 69.765625 -139.859375 C 68.390625 -141.054688 67.125 -141.65625 65.96875 -141.65625 L 65.96875 -143 C 69.34375 -143 73.179688 -143.375 77.484375 -144.125 C 81.796875 -144.882812 86.128906 -145.816406 90.484375 -146.921875 C 94.835938 -148.035156 98.898438 -149.210938 102.671875 -150.453125 C 106.453125 -151.703125 109.539062 -152.769531 111.9375 -153.65625 C 112.65625 -153.925781 113.191406 -154.191406 113.546875 -154.453125 L 114.875 -154.453125 L 114.875 -18.65625 C 114.875 -13.769531 115.539062 -9.859375 116.875 -6.921875 C 118.207031 -3.992188 120.425781 -2.128906 123.53125 -1.328125 L 123.53125 0 L 74.890625 0 L 74.890625 -18.65625 C 71.515625 -12.707031 67.316406 -8.109375 62.296875 -4.859375 C 57.273438 -1.617188 51.210938 0 44.109375 0 C 37.617188 0 31.929688 -1.460938 27.046875 -4.390625 C 22.160156 -7.328125 18.117188 -11.367188 14.921875 -16.515625 C 11.722656 -21.671875 9.320312 -27.625 7.71875 -34.375 C 6.125 -41.132812 5.328125 -48.289062 5.328125 -55.84375 Z M 60.765625 -101.15625 C 57.390625 -101.15625 54.703125 -100.21875 52.703125 -98.34375 C 50.703125 -96.476562 49.191406 -93.988281 48.171875 -90.875 C 47.148438 -87.769531 46.460938 -84.328125 46.109375 -80.546875 C 45.753906 -76.773438 45.578125 -72.976562 45.578125 -69.15625 C 45.578125 -65.34375 45.578125 -61.789062 45.578125 -58.5 C 45.578125 -55.21875 45.644531 -51.617188 45.78125 -47.703125 C 45.914062 -43.796875 46.25 -39.890625 46.78125 -35.984375 C 47.3125 -32.078125 48.175781 -28.5 49.375 -25.25 C 50.570312 -22.007812 52.238281 -19.410156 54.375 -17.453125 C 56.507812 -15.503906 59.265625 -14.53125 62.640625 -14.53125 C 65.742188 -14.53125 68.160156 -15.304688 69.890625 -16.859375 C 71.628906 -18.410156 72.851562 -20.1875 73.5625 -22.1875 C 74.269531 -24.1875 74.710938 -25.765625 74.890625 -26.921875 L 74.890625 -91.546875 C 74.273438 -92.972656 73.253906 -94.414062 71.828125 -95.875 C 70.410156 -97.34375 68.742188 -98.585938 66.828125 -99.609375 C 64.921875 -100.640625 62.898438 -101.15625 60.765625 -101.15625 Z M 60.765625 -101.15625 "/></g></g></g><g fill="#171716" fill-opacity="1"><g transform="translate(624.356685, 153.633147)"><g><path d="M 0 -106.078125 L 73.296875 -106.078125 L 73.296875 -104.484375 C 70.453125 -104.484375 68.207031 -103.660156 66.5625 -102.015625 C 64.914062 -100.367188 63.738281 -98.253906 63.03125 -95.671875 C 62.320312 -93.097656 62.007812 -90.390625 62.09375 -87.546875 C 62.1875 -84.710938 62.5 -82.09375 63.03125 -79.6875 C 64.8125 -72.132812 66.566406 -65.269531 68.296875 -59.09375 C 70.023438 -52.925781 71.734375 -47.195312 73.421875 -41.90625 C 75.117188 -36.625 76.742188 -31.492188 78.296875 -26.515625 C 79.847656 -21.546875 81.335938 -16.394531 82.765625 -11.0625 C 84.003906 -16.125 85.332031 -21.921875 86.75 -28.453125 C 88.175781 -34.984375 89.507812 -41.753906 90.75 -48.765625 C 92 -55.785156 92.929688 -62.601562 93.546875 -69.21875 C 94.171875 -75.84375 94.28125 -81.796875 93.875 -87.078125 C 93.476562 -92.367188 92.390625 -96.59375 90.609375 -99.75 C 88.835938 -102.90625 86.128906 -104.484375 82.484375 -104.484375 L 79.421875 -104.484375 L 79.421875 -106.078125 L 125.53125 -106.078125 L 125.53125 -104.75 C 121.800781 -104.75 118.828125 -104.015625 116.609375 -102.546875 C 114.390625 -101.078125 112.675781 -99.117188 111.46875 -96.671875 C 110.269531 -94.234375 109.1875 -91.550781 108.21875 -88.625 C 105.8125 -81.25 103.65625 -74.582031 101.75 -68.625 C 99.84375 -62.675781 98.066406 -57.054688 96.421875 -51.765625 C 94.773438 -46.484375 93.195312 -41.222656 91.6875 -35.984375 C 90.175781 -30.742188 88.597656 -25.210938 86.953125 -19.390625 C 85.304688 -13.566406 83.550781 -7.101562 81.6875 0 C 81.601562 0.351562 81.160156 1.773438 80.359375 4.265625 C 79.554688 6.753906 78.398438 9.816406 76.890625 13.453125 C 75.378906 17.097656 73.535156 20.894531 71.359375 24.84375 C 69.179688 28.800781 66.625 32.535156 63.6875 36.046875 C 60.757812 39.554688 57.472656 42.398438 53.828125 44.578125 C 50.191406 46.753906 46.195312 47.84375 41.84375 47.84375 C 39.882812 47.84375 37.617188 47.53125 35.046875 46.90625 C 32.472656 46.289062 30.050781 45.335938 27.78125 44.046875 C 25.519531 42.753906 23.8125 41.085938 22.65625 39.046875 L 22.65625 5.0625 L 23.859375 5.0625 C 26.160156 8.613281 29.421875 11.1875 33.640625 12.78125 C 37.867188 14.382812 42.378906 15.1875 47.171875 15.1875 C 51.796875 15.1875 56.328125 14.539062 60.765625 13.25 C 65.210938 11.96875 69.078125 10.191406 72.359375 7.921875 C 75.648438 5.660156 77.875 3.019531 79.03125 0 L 43.84375 0 C 41.976562 -7.101562 40.222656 -13.566406 38.578125 -19.390625 C 36.929688 -25.210938 35.351562 -30.742188 33.84375 -35.984375 C 32.332031 -41.222656 30.753906 -46.484375 29.109375 -51.765625 C 27.472656 -57.054688 25.695312 -62.675781 23.78125 -68.625 C 21.875 -74.582031 19.722656 -81.25 17.328125 -88.625 C 16.429688 -91.550781 15.335938 -94.234375 14.046875 -96.671875 C 12.765625 -99.117188 11.035156 -101.078125 8.859375 -102.546875 C 6.679688 -104.015625 3.726562 -104.75 0 -104.75 Z M 0 -106.078125 "/></g></g></g><path stroke-linecap="butt" transform="matrix(0.751839, 0, 0, 0.751839, 306.868262, 13.548432)" fill="none" stroke-linejoin="miter" d="M 1.775465 3.723172 C 6.622956 3.723172 12.09392 3.193221 18.183159 2.122928 C 24.272398 1.057831 30.39281 -0.272242 36.539201 -1.862095 C 42.685592 -3.446752 48.302031 -5.093756 53.383325 -6.792716 C 58.459423 -8.528045 62.35612 -10.102311 65.068221 -11.515513 L 66.845115 -11.515513 L 66.845115 169.192528 C 66.845115 175.687024 67.723171 180.882621 69.484478 184.779318 C 71.276959 188.676015 74.233253 191.15951 78.363753 192.224608 L 78.363753 194.001502 L 2.12357 194.001502 L 2.12357 192.224608 C 6.280047 191.15951 9.236341 188.676015 10.997649 184.779318 C 12.758956 180.882621 13.637012 175.687024 13.637012 169.192528 L 13.637012 28.921815 C 13.637012 23.352135 12.961584 18.86314 11.600338 15.460024 C 10.244287 12.025735 8.644043 9.511066 6.799607 7.926409 C 4.981148 6.310579 3.30297 5.500066 1.775465 5.500066 Z M 158.339569 197.378639 C 148.525088 197.378639 139.334077 195.716048 130.761343 192.396062 C 122.188609 189.081272 114.629016 184.259758 108.077369 177.936717 C 101.525722 171.618872 96.41845 163.882629 92.750359 154.733183 C 89.087464 145.552564 87.253418 135.176958 87.253418 123.606365 C 87.253418 112.004598 89.113442 101.623796 92.838684 92.474351 C 96.558732 83.324905 101.697176 75.562684 108.248824 69.182492 C 114.831644 62.776321 122.391237 57.92883 130.937994 54.640017 C 139.505532 51.320031 148.701738 49.65744 158.511024 49.65744 C 168.325506 49.65744 177.521712 51.320031 186.08925 54.640017 C 194.661984 57.92883 202.226773 62.776321 208.77842 69.182492 C 215.356045 75.562684 220.478903 83.324905 224.146994 92.474351 C 227.80989 101.623796 229.643935 112.004598 229.643935 123.606365 C 229.643935 135.176958 227.783912 145.552564 224.058669 154.733183 C 220.338622 163.882629 215.18459 171.618872 208.60177 177.936717 C 202.050123 184.259758 194.49053 189.081272 185.917795 192.396062 C 177.345061 195.716048 168.154051 197.378639 158.339569 197.378639 Z M 144.877779 123.429715 C 144.877779 133.129893 144.903757 142.237774 144.960908 150.748161 C 145.01806 159.237766 145.366165 166.709033 146.000028 173.177551 C 146.665064 179.609699 147.963963 184.633841 149.896725 188.239585 C 151.860661 191.850525 154.676674 193.653397 158.339569 193.653397 C 162.121964 193.653397 164.948368 191.850525 166.823978 188.239585 C 168.730762 184.633841 170.014075 179.609699 170.679111 173.177551 C 171.344147 166.709033 171.702644 159.237766 171.759795 150.748161 C 171.816947 142.237774 171.84812 133.129893 171.84812 123.429715 C 171.84812 113.734732 171.816947 104.658025 171.759795 96.199593 C 171.702644 87.741162 171.344147 80.327046 170.679111 73.946854 C 170.014075 67.566661 168.730762 62.573693 166.823978 58.967949 C 164.948368 55.362205 162.121964 53.554138 158.339569 53.554138 C 154.676674 53.554138 151.860661 55.362205 149.896725 58.967949 C 147.963963 62.573693 146.665064 67.566661 146.000028 73.946854 C 145.366165 80.327046 145.01806 87.741162 144.960908 96.199593 C 144.903757 104.658025 144.877779 113.734732 144.877779 123.429715 Z M 144.877779 123.429715 " stroke="#171716" stroke-width="11.083312" stroke-opacity="1" stroke-miterlimit="4"/><g fill="#171716" fill-opacity="1"><g transform="translate(-1.245132, 153.633147)"><g><path d="M 1.328125 -95.6875 L 1.328125 -97.015625 C 4.703125 -97.015625 8.546875 -97.390625 12.859375 -98.140625 C 17.171875 -98.898438 21.503906 -99.832031 25.859375 -100.9375 C 30.210938 -102.050781 34.273438 -103.226562 38.046875 -104.46875 C 41.828125 -105.71875 44.914062 -106.785156 47.3125 -107.671875 C 48.019531 -107.941406 48.550781 -108.210938 48.90625 -108.484375 L 50.234375 -108.484375 L 50.234375 -88.359375 C 51.921875 -91.910156 54.363281 -95.21875 57.5625 -98.28125 C 60.769531 -101.34375 64.523438 -103.804688 68.828125 -105.671875 C 73.140625 -107.546875 77.828125 -108.484375 82.890625 -108.484375 C 89.460938 -108.484375 94.75 -107.394531 98.75 -105.21875 C 102.75 -103.039062 105.8125 -100.238281 107.9375 -96.8125 C 110.070312 -93.394531 111.582031 -89.773438 112.46875 -85.953125 C 113.894531 -89.859375 116.207031 -93.519531 119.40625 -96.9375 C 122.601562 -100.363281 126.488281 -103.144531 131.0625 -105.28125 C 135.644531 -107.414062 140.644531 -108.484375 146.0625 -108.484375 C 152.90625 -108.484375 158.367188 -107.304688 162.453125 -104.953125 C 166.535156 -102.597656 169.597656 -99.597656 171.640625 -95.953125 C 173.691406 -92.304688 175.070312 -88.441406 175.78125 -84.359375 C 176.488281 -80.273438 176.84375 -76.5 176.84375 -73.03125 L 176.84375 -18.65625 C 176.84375 -13.769531 177.507812 -9.859375 178.84375 -6.921875 C 180.175781 -3.992188 182.394531 -2.128906 185.5 -1.328125 L 185.5 0 L 128.203125 0 L 128.203125 -1.328125 C 131.304688 -2.128906 133.523438 -3.992188 134.859375 -6.921875 C 136.191406 -9.859375 136.859375 -13.769531 136.859375 -18.65625 L 136.859375 -78.09375 C 136.859375 -80.582031 136.613281 -83.113281 136.125 -85.6875 C 135.632812 -88.257812 134.703125 -90.4375 133.328125 -92.21875 C 131.953125 -94 129.84375 -94.890625 127 -94.890625 C 124.25 -94.890625 121.875 -94.066406 119.875 -92.421875 C 117.875 -90.773438 116.316406 -88.640625 115.203125 -86.015625 C 114.097656 -83.398438 113.546875 -80.582031 113.546875 -77.5625 C 113.546875 -72.675781 113.546875 -67.320312 113.546875 -61.5 C 113.546875 -55.675781 113.566406 -49.921875 113.609375 -44.234375 C 113.648438 -38.554688 113.671875 -33.453125 113.671875 -28.921875 C 113.671875 -24.390625 113.671875 -20.96875 113.671875 -18.65625 C 113.671875 -13.769531 114.335938 -9.859375 115.671875 -6.921875 C 117.003906 -3.992188 119.226562 -2.128906 122.34375 -1.328125 L 122.34375 0 L 65.03125 0 L 65.03125 -1.328125 C 68.144531 -2.128906 70.367188 -3.992188 71.703125 -6.921875 C 73.035156 -9.859375 73.703125 -13.769531 73.703125 -18.65625 L 73.703125 -78.09375 C 73.703125 -80.582031 73.457031 -83.113281 72.96875 -85.6875 C 72.476562 -88.257812 71.539062 -90.4375 70.15625 -92.21875 C 68.78125 -94 66.671875 -94.890625 63.828125 -94.890625 C 61.078125 -94.890625 58.679688 -94.066406 56.640625 -92.421875 C 54.597656 -90.773438 53.019531 -88.617188 51.90625 -85.953125 C 50.789062 -83.285156 50.234375 -80.441406 50.234375 -77.421875 L 50.234375 -18.65625 C 50.234375 -13.769531 50.898438 -9.859375 52.234375 -6.921875 C 53.566406 -3.992188 55.789062 -2.128906 58.90625 -1.328125 L 58.90625 0 L 1.59375 0 L 1.59375 -1.328125 C 4.707031 -2.128906 6.929688 -3.992188 8.265625 -6.921875 C 9.597656 -9.859375 10.265625 -13.769531 10.265625 -18.65625 L 10.265625 -78.09375 C 10.265625 -82.269531 9.753906 -85.644531 8.734375 -88.21875 C 7.710938 -90.800781 6.507812 -92.691406 5.125 -93.890625 C 3.75 -95.085938 2.484375 -95.6875 1.328125 -95.6875 Z M 1.328125 -95.6875 "/></g></g></g><g fill="#171716" fill-opacity="1"><g transform="translate(185.570448, 153.633147)"><g><path d="M 60.90625 2.53125 C 53.175781 2.53125 45.957031 1.085938 39.25 -1.796875 C 32.539062 -4.679688 26.65625 -8.65625 21.59375 -13.71875 C 16.53125 -18.789062 12.550781 -24.679688 9.65625 -31.390625 C 6.769531 -38.097656 5.328125 -45.269531 5.328125 -52.90625 C 5.328125 -60.550781 6.613281 -67.722656 9.1875 -74.421875 C 11.769531 -81.128906 15.414062 -87.015625 20.125 -92.078125 C 24.832031 -97.148438 30.40625 -101.128906 36.84375 -104.015625 C 43.289062 -106.898438 50.378906 -108.34375 58.109375 -108.34375 C 68.234375 -108.34375 76.804688 -106.785156 83.828125 -103.671875 C 90.847656 -100.566406 96.195312 -96.414062 99.875 -91.21875 C 103.5625 -86.019531 105.40625 -80.269531 105.40625 -73.96875 C 105.40625 -65.164062 101.804688 -58.5 94.609375 -53.96875 C 87.421875 -49.4375 75.785156 -47.171875 59.703125 -47.171875 L 47.703125 -47.171875 C 51.878906 -40.597656 57.320312 -35.578125 64.03125 -32.109375 C 70.738281 -28.648438 78.3125 -26.921875 86.75 -26.921875 C 89.769531 -26.921875 92.65625 -27.207031 95.40625 -27.78125 C 98.164062 -28.363281 100.925781 -29.234375 103.6875 -30.390625 C 103.6875 -25.765625 102.507812 -21.453125 100.15625 -17.453125 C 97.800781 -13.453125 94.597656 -9.941406 90.546875 -6.921875 C 86.503906 -3.910156 81.929688 -1.582031 76.828125 0.0625 C 71.722656 1.707031 66.414062 2.53125 60.90625 2.53125 Z M 46.25 -49.703125 L 47.046875 -49.703125 C 51.484375 -49.703125 55.210938 -50.585938 58.234375 -52.359375 C 61.253906 -54.140625 63.695312 -56.519531 65.5625 -59.5 C 67.425781 -62.476562 68.757812 -65.742188 69.5625 -69.296875 C 70.363281 -72.847656 70.765625 -76.359375 70.765625 -79.828125 C 70.765625 -82.671875 70.472656 -85.578125 69.890625 -88.546875 C 69.316406 -91.523438 68.40625 -94.28125 67.15625 -96.8125 C 65.914062 -99.34375 64.335938 -101.40625 62.421875 -103 C 60.515625 -104.601562 58.273438 -105.40625 55.703125 -105.40625 C 52.679688 -105.40625 50.125 -104.539062 48.03125 -102.8125 C 45.945312 -101.082031 44.28125 -98.835938 43.03125 -96.078125 C 41.789062 -93.328125 40.90625 -90.460938 40.375 -87.484375 C 39.84375 -84.515625 39.578125 -81.738281 39.578125 -79.15625 C 39.578125 -73.289062 40.15625 -67.894531 41.3125 -62.96875 C 42.46875 -58.039062 44.113281 -53.617188 46.25 -49.703125 Z M 46.25 -49.703125 "/></g></g></g></svg>